<?xml version="1.0" encoding="UTF-8" standalone="no"?>
<svg
   xmlns:dc="http://purl.org/dc/elements/1.1/"
   xmlns:cc="http://creativecommons.org/ns#"
   xmlns:rdf="http://www.w3.org/1999/02/22-rdf-syntax-ns#"
   xmlns:svg="http://www.w3.org/2000/svg"
   xmlns="http://www.w3.org/2000/svg"
   id="svg1817"
   version="1.1"
   viewBox="0 0 42.427276 57.048885"
   height="57.048885mm"
   width="42.427277mm">
  <defs
     id="defs1811" />
  <metadata
     id="metadata1814">
    <rdf:RDF>
      <cc:Work
         rdf:about="">
        <dc:format>image/svg+xml</dc:format>
        <dc:type
           rdf:resource="http://purl.org/dc/dcmitype/StillImage" />
        <dc:title></dc:title>
      </cc:Work>
    </rdf:RDF>
  </metadata>
  <g
     transform="translate(-95.155994,-86.089286)"
     id="layer1">
    <g
       id="g2907"
       transform="matrix(0.35277777,0,0,-0.35277777,15.606106,375.8517)">
      <g
         id="g96"
         transform="translate(245.1289,746.3141)">
        <path
           d="m 0,0 h 81 c 0,0 15.599,-56.319 -34.031,-69.069 0,0 -64.183,-1.737 -46.969,69.069"
           style="fill:#fdd085;fill-opacity:1;fill-rule:nonzero;stroke:none"
           id="path98" />
      </g>
      <g
         id="g100"
         transform="translate(251.6914,807.7355)">
        <path
           d="m 0,0 c 0,-3.573 -2.896,-6.469 -6.469,-6.469 -3.573,0 -6.469,2.896 -6.469,6.469 0,3.573 2.896,6.469 6.469,6.469 C -2.896,6.469 0,3.573 0,0"
           style="fill:#edca05;fill-opacity:1;fill-rule:nonzero;stroke:none"
           id="path102" />
      </g>
      <g
         id="g104"
         transform="translate(251.6914,807.7355)">
        <path
           d="m 0,0 c 0,-3.573 -2.896,-6.469 -6.469,-6.469 -3.573,0 -6.469,2.896 -6.469,6.469 0,3.573 2.896,6.469 6.469,6.469 C -2.896,6.469 0,3.573 0,0 Z"
           style="fill:none;stroke:#1d1d1b;stroke-width:3;stroke-linecap:butt;stroke-linejoin:miter;stroke-miterlimit:10;stroke-dasharray:none;stroke-opacity:1"
           id="path106" />
      </g>
      <g
         id="g108"
         transform="translate(275.3477,731.5323)">
        <path
           d="m 0,0 c 0,-2.097 -1.7,-3.797 -3.797,-3.797 -2.097,0 -3.797,1.7 -3.797,3.797 0,2.097 1.7,3.797 3.797,3.797 C -1.7,3.797 0,2.097 0,0"
           style="fill:#1d1d1b;fill-opacity:1;fill-rule:nonzero;stroke:none"
           id="path110" />
      </g>
      <g
         id="g112"
         transform="translate(275.3477,731.5323)">
        <path
           d="m 0,0 c 0,-2.097 -1.7,-3.797 -3.797,-3.797 -2.097,0 -3.797,1.7 -3.797,3.797 0,2.097 1.7,3.797 3.797,3.797 C -1.7,3.797 0,2.097 0,0 Z"
           style="fill:none;stroke:#1d1d1b;stroke-width:3;stroke-linecap:round;stroke-linejoin:round;stroke-miterlimit:10;stroke-dasharray:none;stroke-opacity:1"
           id="path114" />
      </g>
      <g
         id="g116"
         transform="translate(285.6289,800.423)">
        <path
           d="M 0,0 20.25,-22.5 40.5,0 V -54.109 H 0 -40.5 V 0 l 20.25,-22.5 z"
           style="fill:#f4e75a;fill-opacity:1;fill-rule:nonzero;stroke:none"
           id="path118" />
      </g>
      <g
         id="g120"
         transform="translate(285.6289,800.423)">
        <path
           d="M 0,0 20.25,-22.5 40.5,0 V -54.109 H 0 -40.5 V 0 l 20.25,-22.5 z"
           style="fill:none;stroke:#1d1d1b;stroke-width:3;stroke-linecap:butt;stroke-linejoin:round;stroke-miterlimit:10;stroke-dasharray:none;stroke-opacity:1"
           id="path122" />
      </g>
      <g
         id="g124"
         transform="translate(326.1289,761.3292)">
        <path
           d="M 0,0 H -40.5 -81 V -15.015 H 0 Z"
           style="fill:#f8cb12;fill-opacity:1;fill-rule:nonzero;stroke:none"
           id="path126" />
      </g>
      <g
         id="g128"
         transform="translate(326.1289,761.3292)">
        <path
           d="M 0,0 H -40.5 -81 V -15.015 H 0 Z"
           style="fill:none;stroke:#1d1d1b;stroke-width:3;stroke-linecap:butt;stroke-linejoin:miter;stroke-miterlimit:10;stroke-dasharray:none;stroke-opacity:1"
           id="path130" />
      </g>
      <g
         id="g132"
         transform="translate(319.5664,807.7355)">
        <path
           d="m 0,0 c 0,-3.573 2.896,-6.469 6.469,-6.469 3.572,0 6.469,2.896 6.469,6.469 0,3.573 -2.897,6.469 -6.469,6.469 C 2.896,6.469 0,3.573 0,0"
           style="fill:#edca05;fill-opacity:1;fill-rule:nonzero;stroke:none"
           id="path134" />
      </g>
      <g
         id="g136"
         transform="translate(319.5664,807.7355)">
        <path
           d="m 0,0 c 0,-3.573 2.896,-6.469 6.469,-6.469 3.572,0 6.469,2.896 6.469,6.469 0,3.573 -2.897,6.469 -6.469,6.469 C 2.896,6.469 0,3.573 0,0 Z"
           style="fill:none;stroke:#1d1d1b;stroke-width:3;stroke-linecap:butt;stroke-linejoin:miter;stroke-miterlimit:10;stroke-dasharray:none;stroke-opacity:1"
           id="path138" />
      </g>
      <g
         id="g140"
         transform="translate(279.1602,807.7355)">
        <path
           d="m 0,0 c 0,-3.573 2.896,-6.469 6.469,-6.469 3.572,0 6.469,2.896 6.469,6.469 0,3.573 -2.897,6.469 -6.469,6.469 C 2.896,6.469 0,3.573 0,0"
           style="fill:#edca05;fill-opacity:1;fill-rule:nonzero;stroke:none"
           id="path142" />
      </g>
      <g
         id="g144"
         transform="translate(279.1602,807.7355)">
        <path
           d="m 0,0 c 0,-3.573 2.896,-6.469 6.469,-6.469 3.572,0 6.469,2.896 6.469,6.469 0,3.573 -2.897,6.469 -6.469,6.469 C 2.896,6.469 0,3.573 0,0 Z"
           style="fill:none;stroke:#1d1d1b;stroke-width:3;stroke-linecap:butt;stroke-linejoin:miter;stroke-miterlimit:10;stroke-dasharray:none;stroke-opacity:1"
           id="path146" />
      </g>
      <g
         id="g148"
         transform="translate(295.9102,731.5323)">
        <path
           d="m 0,0 c 0,-2.097 1.7,-3.797 3.797,-3.797 2.097,0 3.797,1.7 3.797,3.797 0,2.097 -1.7,3.797 -3.797,3.797 C 1.7,3.797 0,2.097 0,0"
           style="fill:#1d1d1b;fill-opacity:1;fill-rule:nonzero;stroke:none"
           id="path150" />
      </g>
      <g
         id="g152"
         transform="translate(295.9102,731.5323)">
        <path
           d="m 0,0 c 0,-2.097 1.7,-3.797 3.797,-3.797 2.097,0 3.797,1.7 3.797,3.797 0,2.097 -1.7,3.797 -3.797,3.797 C 1.7,3.797 0,2.097 0,0 Z"
           style="fill:none;stroke:#1d1d1b;stroke-width:3;stroke-linecap:round;stroke-linejoin:round;stroke-miterlimit:10;stroke-dasharray:none;stroke-opacity:1"
           id="path154" />
      </g>
      <g
         id="g156"
         transform="translate(285.6289,666.8297)">
        <path
           d="M 0,0 C 15.75,0 20.25,12.375 20.25,12.375 36.563,8.719 37.688,24.187 37.688,24.187 50.063,25.031 46.875,38.25 46.875,38.25 57.75,43.593 50.182,53.156 50.182,53.156 57.333,62.437 48.656,68.5 48.656,68.5 54,80.468 43.594,82.968 43.594,82.968 33.75,84.937 32.625,75.937 32.625,75.937 c -1.969,-5.344 3.656,-9 3.656,-9 C 31.781,58.5 38.25,54.281 38.25,54.281 32.063,49.218 36.281,42.046 36.281,42.046 30.937,41.625 29.531,36 29.531,36 25.312,38.812 20.25,36 20.25,36 13.219,48.093 0,48.093 0,48.093 c 0,0 -13.219,0 -20.25,-12.093 0,0 -5.062,2.812 -9.281,0 0,0 -1.406,5.625 -6.75,6.046 0,0 4.218,7.172 -1.969,12.235 0,0 6.469,4.219 1.969,12.656 0,0 5.625,3.656 3.656,9 0,0 -1.125,9 -10.969,7.031 0,0 -10.406,-2.5 -5.062,-14.468 0,0 -8.677,-6.063 -1.526,-15.344 0,0 -7.568,-9.563 3.307,-14.906 0,0 -3.188,-13.219 9.187,-14.063 0,0 1.125,-15.468 17.438,-11.812 C -20.25,12.375 -15.75,0 0,0"
           style="fill:#ef7c0e;fill-opacity:1;fill-rule:nonzero;stroke:none"
           id="path158" />
      </g>
      <g
         id="g160"
         transform="translate(285.6289,666.8297)">
        <path
           d="M 0,0 C 15.75,0 20.25,12.375 20.25,12.375 36.563,8.719 37.688,24.187 37.688,24.187 50.063,25.031 46.875,38.25 46.875,38.25 57.75,43.593 50.182,53.156 50.182,53.156 57.333,62.437 48.656,68.5 48.656,68.5 54,80.468 43.594,82.968 43.594,82.968 33.75,84.937 32.625,75.937 32.625,75.937 c -1.969,-5.344 3.656,-9 3.656,-9 C 31.781,58.5 38.25,54.281 38.25,54.281 32.063,49.218 36.281,42.046 36.281,42.046 30.937,41.625 29.531,36 29.531,36 25.312,38.812 20.25,36 20.25,36 13.219,48.093 0,48.093 0,48.093 c 0,0 -13.219,0 -20.25,-12.093 0,0 -5.062,2.812 -9.281,0 0,0 -1.406,5.625 -6.75,6.046 0,0 4.218,7.172 -1.969,12.235 0,0 6.469,4.219 1.969,12.656 0,0 5.625,3.656 3.656,9 0,0 -1.125,9 -10.969,7.031 0,0 -10.406,-2.5 -5.062,-14.468 0,0 -8.677,-6.063 -1.526,-15.344 0,0 -7.568,-9.563 3.307,-14.906 0,0 -3.188,-13.219 9.187,-14.063 0,0 1.125,-15.468 17.438,-11.812 C -20.25,12.375 -15.75,0 0,0 Z"
           style="fill:none;stroke:#1d1d1b;stroke-width:3;stroke-linecap:butt;stroke-linejoin:miter;stroke-miterlimit:10;stroke-dasharray:none;stroke-opacity:1"
           id="path162" />
      </g>
      <g
         id="g164"
         transform="translate(285.6289,683.4235)">
        <path
           d="M 0,0 C 11.531,0 12.094,12.375 12.094,12.375 H 0 -12.094 C -12.094,12.375 -11.531,0 0,0"
           style="fill:#1d1d1b;fill-opacity:1;fill-rule:nonzero;stroke:none"
           id="path166" />
      </g>
      <g
         id="g168"
         transform="translate(285.6289,683.4235)">
        <path
           d="M 0,0 C 11.531,0 12.094,12.375 12.094,12.375 H 0 -12.094 C -12.094,12.375 -11.531,0 0,0 Z"
           style="fill:none;stroke:#1d1d1b;stroke-width:3;stroke-linecap:round;stroke-linejoin:round;stroke-miterlimit:10;stroke-dasharray:none;stroke-opacity:1"
           id="path170" />
      </g>
    </g>
  </g>
</svg>
